<svg width="100" height="100" fill="none" xmlns="http://www.w3.org/2000/svg"><g filter="url(#filter0_d)"><g clip-path="url(#clip0)" fill="#FE1020"><path d="M79.229 24.081a.883.883 0 00-.6-.31L65.57 22.654l-.236-1.882a.884.884 0 00-.987-.766L52.234 21.53a.877.877 0 00-.148-.026l-16.65-1.422a.892.892 0 00-.955.805l-.248 2.906-12.896 1.621a.892.892 0 00-.767.987l6.583 52.36c.03.24-.021.469.076.7.137.323.463.54.814.54h43.35a.883.883 0 00.883-.884v-1.151l1.71.146a.892.892 0 00.956-.805l4.491-52.58a.883.883 0 00-.204-.646zM27.16 64.651l-4.726-37.594 4.726-.594v38.188zm9.006-42.734l7.733.66-7.873.99.14-1.65zm27.525-.047l.451 3.59h-29.01l28.559-3.59zm9.566 54.406l-.981-.084V50.374a.883.883 0 10-1.767 0v27.859H28.927V27.228h41.582v19.024a.883.883 0 101.767 0V26.344a.883.883 0 00-.884-.883h-5.469l-.127-1.013 11.801 1.008-4.34 50.82z"/><path d="M66.68 30.173h-4.71a.883.883 0 00-.735.393l-2 3a13.063 13.063 0 00-7.631-2.451.883.883 0 00-.884.883V44.25c0 .488.396.884.884.884h12.25a.883.883 0 00.884-.884 13.1 13.1 0 00-4.132-9.555l1.837-2.754h4.239a.883.883 0 100-1.767zm-3.744 13.193h-10.45v-10.45a11.3 11.3 0 015.767 2.122l-.789 1.182a.892.892 0 00.166 1.166.892.892 0 001.304-.186l.675-1.012a11.337 11.337 0 013.327 7.178z"/><path d="M66.68 59.386h-7.99l-1.408-2.253a13.09 13.09 0 003.687-9.114.883.883 0 00-.884-.884H48.717V35.768a.883.883 0 00-.884-.884c-7.242 0-13.134 5.892-13.134 13.135 0 7.242 5.892 13.134 13.134 13.134a13.07 13.07 0 008.117-2.815l1.5 2.4a.884.884 0 00.75.415h8.48a.883.883 0 100-1.767zm-12.443-7.124a.883.883 0 10-1.499.937l2.27 3.63a11.314 11.314 0 01-7.175 2.557c-6.267 0-11.367-5.1-11.367-11.367 0-5.971 4.627-10.881 10.484-11.334V48.02c0 .488.395.883.883.883h11.334a11.324 11.324 0 01-2.855 6.68l-2.075-3.32zM40.294 64.098h-7.539a.883.883 0 100 1.767h7.54a.883.883 0 100-1.767zm11.309 0h-7.54a.883.883 0 100 1.767h7.54a.883.883 0 100-1.767zm-6.597 4.712h-12.25a.883.883 0 100 1.766h12.25a.883.883 0 100-1.766zm6.597 0h-2.827a.883.883 0 100 1.766h2.827a.883.883 0 100-1.766zm-15.078 4.711h-3.77a.883.883 0 100 1.767h3.77a.883.883 0 100-1.767zm15.078 0H40.294a.883.883 0 100 1.767h11.309a.883.883 0 100-1.767z"/></g></g><defs><clipPath id="clip0"><path fill="#fff" d="M20 20h60v60H20z"/></clipPath><filter id="filter0_d" x="0" y="0" width="100" height="100" filterUnits="userSpaceOnUse" color-interpolation-filters="sRGB"><feFlood flood-opacity="0" result="BackgroundImageFix"/><feColorMatrix in="SourceAlpha" values="0 0 0 0 0 0 0 0 0 0 0 0 0 0 0 0 0 0 127 0"/><feOffset/><feGaussianBlur stdDeviation="10"/><feColorMatrix values="0 0 0 0 0.996078 0 0 0 0 0.0627451 0 0 0 0 0.12549 0 0 0 0.5 0"/><feBlend in2="BackgroundImageFix" result="effect1_dropShadow"/><feBlend in="SourceGraphic" in2="effect1_dropShadow" result="shape"/></filter></defs></svg>