<svg width="100" height="100" fill="none" xmlns="http://www.w3.org/2000/svg"><g filter="url(#filter0_d)" fill="#FE1020"><path d="M55.817 46.9l-2.232-7.223L59.125 35h-6.898L50 28.262 47.773 35h-6.899l5.54 4.677-2.231 7.224L50 42.456l5.817 4.445zm-9.816-10.025h3.127L50 34.238l.872 2.637h3.127l-2.57 2.17.866 2.804L50 40.097l-2.294 1.753.866-2.804L46 36.875z"/><path d="M76.61 69.254a7.248 7.248 0 00-4.325-1.442 7.178 7.178 0 00-2.92.621 23.663 23.663 0 001.525-4.37h1.61a6.57 6.57 0 006.563-6.563v-.938H76.25c-1.836 0-3.495.76-4.687 1.98v-6.667h.937a6.57 6.57 0 006.563-6.563v-.937H76.25c-2.826 0-5.233 1.8-6.156 4.309A6.549 6.549 0 0065 46.25h-2.812v.938a6.57 6.57 0 006.562 6.562h.938v4.788c0 1.42-.143 2.823-.414 4.19-.927-2.5-3.33-4.29-6.149-4.29h-2.812v.937c0 .422.044.833.12 1.232a12.251 12.251 0 00-5.745-4.98v-1.195c0-2.003.78-3.886 2.196-5.303l2.51-2.51a16.033 16.033 0 002.507-3.275c4.466-.769 7.787-4.657 7.787-9.23v-5.676a1.877 1.877 0 00-1.875-1.875h-3.75a1.877 1.877 0 00-1.875-1.875h-.207l-.405-1.62a2.808 2.808 0 00-2.728-2.13H41.152a2.808 2.808 0 00-2.728 2.13l-.405 1.62h-.206c-1.035 0-1.875.84-1.875 1.875h-3.75c-1.035 0-1.875.84-1.875 1.875v5.676c0 4.56 3.3 8.438 7.786 9.227a15.992 15.992 0 002.506 3.277l2.511 2.51a7.455 7.455 0 012.197 5.304v1.196a12.25 12.25 0 00-5.745 4.979c.076-.4.12-.811.12-1.232v-.938h-2.813c-2.819 0-5.222 1.791-6.149 4.291a21.564 21.564 0 01-.413-4.19V53.75h.937a6.57 6.57 0 006.563-6.563v-.937H35c-2.055 0-3.89.95-5.094 2.434-.923-2.51-3.33-4.309-6.156-4.309h-2.812v.938a6.57 6.57 0 006.562 6.562h.938v6.666a6.54 6.54 0 00-4.688-1.978h-2.812v.937a6.57 6.57 0 006.562 6.563h1.61a23.663 23.663 0 001.526 4.37 7.183 7.183 0 00-2.921-.62 7.24 7.24 0 00-4.324 1.441l-3.079 2.308 2.556 1.917a9.227 9.227 0 005.501 1.834 9.216 9.216 0 004.102-.969l1.44-.72a23.511 23.511 0 006.242 5.311l.946-1.62c-4.443-2.591-7.754-6.666-9.468-11.377h1.494a6.553 6.553 0 005.214-2.593 12.129 12.129 0 00-.526 3.53c0 6.72 5.467 12.188 12.187 12.188s12.188-5.468 12.188-12.188c0-1.227-.187-2.412-.526-3.53a6.552 6.552 0 005.213 2.593h1.495c-1.714 4.711-5.024 8.786-9.467 11.377l.945 1.62a23.494 23.494 0 006.241-5.31l1.441.72a9.212 9.212 0 004.101.968c1.97 0 3.925-.652 5.501-1.835l2.556-1.915-3.078-2.309zm-.36-10.817h.843a4.696 4.696 0 01-4.593 3.75h-.843a4.695 4.695 0 014.593-3.75zm0-12.187h.843A4.696 4.696 0 0172.5 50h-.843a4.695 4.695 0 014.593-3.75zm-7.5 5.625a4.695 4.695 0 01-4.593-3.75H65a4.695 4.695 0 014.593 3.75h-.843zM35 48.125h.843a4.696 4.696 0 01-4.593 3.75h-.843A4.695 4.695 0 0135 48.125zM27.5 50a4.695 4.695 0 01-4.593-3.75h.843A4.695 4.695 0 0128.343 50H27.5zm0 12.188a4.695 4.695 0 01-4.593-3.75h.843a4.695 4.695 0 014.593 3.75H27.5zm4.132 10.479c-2.41 1.206-5.483.929-7.64-.688l-.554-.416 1.078-.809a5.36 5.36 0 013.199-1.067c1.425 0 2.764.556 3.77 1.562l.994.994-.847.424zm1.493-8.605h-.843a4.695 4.695 0 014.593-3.75h.843a4.695 4.695 0 01-4.593 3.75zm6.563 2.813c0-.392.026-.776.069-1.157l2.937-1.94 2.619 1.726v2.74l-2.62 1.727-2.935-1.934c-.043-.381-.07-.768-.07-1.162zm16.65-4.703l-2.652 1.747-2.748-1.373v-3.53l3.176-1.592c.718.314 1.39.713 2.01 1.174l.215 3.574zM50 69.577l-2.812-1.406v-2.592L50 64.173l2.813 1.406v2.592L50 69.577zm0-12.188l-1.431-.715c.47-.066.944-.111 1.431-.111.486 0 .96.044 1.427.11l-1.428.716zm-4.118.038l3.18 1.59v3.529l-2.748 1.374-2.653-1.748.21-3.57a10.208 10.208 0 012.01-1.175zm-2.22 14.151l2.652-1.747 2.749 1.373v3.53l-3.177 1.592a10.31 10.31 0 01-2.01-1.174l-.214-3.574zm7.276-.374l2.748-1.374 2.653 1.748-.21 3.57c-.621.463-1.292.861-2.01 1.175l-3.181-1.59v-3.529zm6.368-1.233l-2.618-1.725v-2.74l2.619-1.727 2.935 1.934c.043.381.07.768.07 1.162 0 .392-.026.776-.069 1.157l-2.937 1.939zm2.25-6.956l-1.34-.883-.096-1.593a10.29 10.29 0 011.436 2.476zm8.257-34.578v5.677c0 3.153-1.975 5.899-4.833 6.995a15.899 15.899 0 001.083-5.76v-6.911h3.75zm-27.571-4.914a.938.938 0 01.91-.71h17.697c.431 0 .805.292.91.71l.291 1.165h-20.1l.292-1.165zm-8.054 10.591v-5.676h3.75v6.912c0 2.006.38 3.951 1.085 5.767-2.848-1.086-4.835-3.839-4.835-7.003zm12.254 13.69l-2.511-2.51a13.978 13.978 0 01-4.118-9.944v-8.788h24.375v8.788c0 3.756-1.464 7.287-4.12 9.944l-2.51 2.51a9.316 9.316 0 00-2.745 6.628v.596a12.15 12.15 0 00-2.813-.34c-.97 0-1.908.125-2.812.34v-.596a9.313 9.313 0 00-2.746-6.629zm-2.563 12.738l-.094 1.591-1.343.886c.363-.896.85-1.727 1.437-2.477zm-1.435 10.193l1.34.883.096 1.593a10.288 10.288 0 01-1.436-2.476zm8.13 6.342L50 76.36l1.43.715c-.47.066-.944.112-1.43.112-.487 0-.96-.046-1.428-.111zm9.548-3.87l.093-1.59 1.343-.886c-.363.896-.85 1.727-1.436 2.477zm8.753-9.144a4.695 4.695 0 01-4.593-3.75h.843a4.695 4.695 0 014.593 3.75h-.843zm9.133 7.915c-2.158 1.618-5.23 1.895-7.64.689l-.847-.424.994-.994a5.295 5.295 0 013.77-1.561 5.36 5.36 0 013.2 1.066l1.077.808-.554.416z"/></g><defs><filter id="filter0_d" x="0" y="0" width="100" height="100" filterUnits="userSpaceOnUse" color-interpolation-filters="sRGB"><feFlood flood-opacity="0" result="BackgroundImageFix"/><feColorMatrix in="SourceAlpha" values="0 0 0 0 0 0 0 0 0 0 0 0 0 0 0 0 0 0 127 0"/><feOffset/><feGaussianBlur stdDeviation="10"/><feColorMatrix values="0 0 0 0 0.996078 0 0 0 0 0.0627451 0 0 0 0 0.12549 0 0 0 0.5 0"/><feBlend in2="BackgroundImageFix" result="effect1_dropShadow"/><feBlend in="SourceGraphic" in2="effect1_dropShadow" result="shape"/></filter></defs></svg>