<svg width="60" height="60" fill="none" xmlns="http://www.w3.org/2000/svg"><path d="M.938.938v56.25c0 1.034.84 1.874 1.875 1.874h1.874c1.035 0 1.875-.84 1.875-1.874V55.63l8.9-11.569h2.69a12.15 12.15 0 00-.34 2.813c0 6.72 5.468 12.188 12.188 12.188 6.72 0 12.188-5.468 12.188-12.188 0-.97-.126-1.908-.34-2.813h2.69l8.9 11.57v1.556c0 1.034.84 1.874 1.874 1.874h1.876c1.034 0 1.874-.84 1.874-1.874V.938H.938zm7.415 19.464l-1.79 2.239v-9.4l1.79 7.16zM33.686 43.92l-2.748-1.374v-3.53l3.176-1.592a10.29 10.29 0 012.01 1.174l.215 3.575-2.653 1.747zM30 49.577l-2.813-1.406v-2.592L30 44.173l2.813 1.406v2.592L30 49.577zm-3.686-5.657l-2.654-1.748.21-3.57a10.223 10.223 0 012.012-1.175l3.18 1.59v3.529l-2.748 1.374zm21.704-16.733h-3.965l.985-5.625h4.386l-1.406 5.625zm-5.868 0h-5.463l.703-5.625h5.744l-.984 5.625zm-7.353 0h-3.86v-5.625H35.5l-.703 5.625zM30 37.39l-1.43-.715c.468-.066.943-.111 1.43-.111.486 0 .96.044 1.428.11L30 37.39zm-.938-2.702H26.14l-.703-5.624h3.625v5.625zm1.875 0v-5.624h3.626l-.703 5.625h-2.922zm-1.875-7.5h-3.86l-.702-5.625h4.563v5.625zm-5.75 0H17.85l-.984-5.625h5.744l.703 5.625zm-7.365 0h-3.965l-1.406-5.625h4.386l.985 5.625zm-5.701.789l-1.711 2.85-1.855-5.333 2.244-2.805 1.322 5.288zm.643 2.572l1.235 4.94-1.224 2.14-1.563-4.494 1.552-2.586zm1.562-1.485h3.824l.984 5.625h-3.402l-1.406-5.626zm5.727 0h5.37l.702 5.625h-5.087l-.985-5.626zm5.356 7.5a12.277 12.277 0 00-3.47 3.278l-.573-3.279h4.043zm-1.656 3.98l-.093 1.59-1.342.885c.363-.895.849-1.726 1.435-2.476zm14.588-3.98h4.043l-.573 3.278a12.29 12.29 0 00-3.47-3.279zm3.09 6.452l-1.34-.883-.096-1.593a10.31 10.31 0 011.436 2.476zm-3.806-8.328l.703-5.624h5.369l-.985 5.625H35.75zm7.975-5.624h3.824l-1.406 5.625H42.74l.984-5.626zm5.386 1.485l1.552 2.586-1.563 4.493-1.224-2.14 1.235-4.939zm.643-2.572l1.322-5.288 2.244 2.805-1.855 5.334-1.71-2.851zm.139-8.288h-4.527l.984-5.625h4.95l-1.407 5.624zm-6.43 0h-5.838l.703-5.625h6.119l-.985 5.624zm-7.728 0h-4.797v-5.625h5.5l-.703 5.624zm-6.672 0h-4.798l-.703-5.625h5.5v5.624zm-6.688 0h-5.837l-.985-5.625h6.12l.702 5.624zm-7.74 0h-4.528l-1.406-5.625h4.949l.984 5.624zM7.278 32.92l-.716 1.195v-3.254l.716 2.06zm-.716 6.252V37.76l1.518-2.532 1.586 4.56-1.575 2.753-1.53-3.368zm.384 5.375l-.385.672v-1.517l.385.845zm3.537-2.412L11.76 45.8l-1.372 1.784-1.336-2.94 1.433-2.51zm1.234-2.16l1.063-1.86 1.199 4.797-.855 1.111-1.407-4.047zm2.608-3.413h3.261l.985 5.624h-2.84l-1.406-5.624zm5.361 10.312c0-.392.027-.776.07-1.157l2.936-1.939 2.62 1.726v2.74l-2.62 1.727-2.936-1.934c-.042-.382-.07-.77-.07-1.163zm3.974 4.703l2.653-1.748 2.748 1.374v3.53l-3.176 1.592a10.29 10.29 0 01-2.01-1.174l-.215-3.574zm7.276-.374l2.75-1.374 2.653 1.748-.21 3.57c-.622.463-1.293.861-2.012 1.175l-3.18-1.59v-3.529zm6.37-1.233l-2.62-1.726v-2.74l2.62-1.727 2.936 1.934c.042.382.07.77.07 1.163 0 .392-.027.776-.07 1.157l-2.936 1.939zm5.105-13.408h3.262l-1.406 5.624h-2.84l.985-5.624zm4.807 1.553l1.063 1.86-1.408 4.048-.855-1.11 1.2-4.798zm2.297 4.02l1.434 2.51-1.336 2.94-1.372-1.784 1.274-3.666zm.817-2.349l1.585-4.559 1.519 2.532v1.413l-1.531 3.368-1.573-2.753zm3.105 3.916v1.517l-.385-.672.385-.846zm0-9.587l-.717-1.195.717-2.06v3.255zm0-11.475l-1.791-2.238 1.79-7.163v9.4zm-1.67-10.453h-5.09l.985-5.626h5.511l-1.406 5.625zm-6.993 0h-6.213l.703-5.626h6.494l-.984 5.625zm-8.103 0h-5.734V6.561h6.437l-.703 5.625zm-7.61 0h-5.734l-.703-5.626h6.438v5.625zm-8.327-5.626l.703 5.625h-6.213l-.984-5.624h6.494zm-8.397 0l.984 5.625h-5.09L6.826 6.564h5.512zM6.563 48.998l1.34-2.346 1.189 2.615-2.53 3.29v-3.559zm13.881 1.737l1.34.883.096 1.593a10.303 10.303 0 01-1.436-2.476zm8.128 6.342L30 56.36l1.43.715c-.468.066-.943.111-1.43.111-.486 0-.96-.044-1.428-.11zm9.55-3.87l.093-1.59 1.342-.885a10.288 10.288 0 01-1.435 2.476zm12.786-3.94l1.189-2.615 1.34 2.346v3.558l-2.529-3.288zm6.28 7.92h-1.876v-52.5H4.688v52.5H2.813V2.813h54.374v54.374z" fill="#fff" fill-opacity=".3"/></svg>