<svg width="60" height="60" fill="none" xmlns="http://www.w3.org/2000/svg"><path d="M39.375 38.438a4.693 4.693 0 00-4.688 4.687 4.693 4.693 0 004.688 4.688 4.693 4.693 0 004.688-4.688 4.693 4.693 0 00-4.688-4.688zm0 7.5a2.816 2.816 0 01-2.813-2.813 2.816 2.816 0 012.813-2.813 2.816 2.816 0 012.813 2.813 2.816 2.816 0 01-2.813 2.813zM44.063 30a6.538 6.538 0 014.101-6.085l-.703-1.738A8.404 8.404 0 0042.188 30a8.404 8.404 0 005.273 7.823l.703-1.738A6.538 6.538 0 0144.062 30zM15.938 13.125a4.693 4.693 0 00-4.688-4.688 4.693 4.693 0 00-4.688 4.688 4.693 4.693 0 004.688 4.688 4.693 4.693 0 004.688-4.688zm-4.688 2.813a2.816 2.816 0 01-2.813-2.813 2.816 2.816 0 012.813-2.813 2.816 2.816 0 012.813 2.813 2.816 2.816 0 01-2.813 2.813zm1.29 6.239l-.704 1.738A6.538 6.538 0 0115.937 30a6.538 6.538 0 01-4.101 6.085l.703 1.738A8.404 8.404 0 0017.813 30a8.404 8.404 0 00-5.274-7.823z" fill="#fff" fill-opacity=".3"/><path d="M57.188 4.688H2.812c-1.034 0-1.874.84-1.874 1.875v46.874c0 1.035.84 1.876 1.875 1.876h54.374a1.877 1.877 0 001.876-1.876V6.563a1.877 1.877 0 00-1.876-1.875zM8.438 32.64A2.809 2.809 0 016.562 30a2.81 2.81 0 011.875-2.64v5.28zm1.874-5.28A2.809 2.809 0 0112.188 30a2.81 2.81 0 01-1.876 2.64v-5.28zm-1.874-1.953A4.696 4.696 0 004.688 30a4.696 4.696 0 003.75 4.593v3.844H2.811V21.564h5.626v3.844zM2.811 40.312h5.626c1.034 0 1.874-.84 1.874-1.874v-3.845A4.695 4.695 0 0014.063 30a4.695 4.695 0 00-3.75-4.593v-3.845c0-1.034-.84-1.875-1.874-1.875H2.811V6.563h26.25v9.375h-5.797a2.809 2.809 0 00-2.64-1.874 2.816 2.816 0 00-2.813 2.812 2.81 2.81 0 001.875 2.64v19.017a4.695 4.695 0 00-3.75 4.593 4.693 4.693 0 004.688 4.688 4.693 4.693 0 004.688-4.688 4.696 4.696 0 00-3.75-4.593V19.515a2.81 2.81 0 001.702-1.703h5.797v5.7c-3.175.458-5.625 3.189-5.625 6.488 0 3.3 2.45 6.03 5.625 6.487v16.95H2.813V40.313zm17.813 0a2.816 2.816 0 012.813 2.813 2.816 2.816 0 01-2.813 2.813 2.816 2.816 0 01-2.813-2.813 2.816 2.816 0 012.813-2.813zm0-22.5a.938.938 0 010-1.875.938.938 0 010 1.876zm8.438 16.78A4.695 4.695 0 0125.313 30a4.695 4.695 0 013.75-4.593v9.186zm1.875-9.185A4.695 4.695 0 0134.688 30a4.695 4.695 0 01-3.75 4.593v-9.186zm0 28.03v-16.95c3.175-.457 5.625-3.188 5.625-6.487 0-3.3-2.45-6.03-5.626-6.488v-5.7h3.845a4.695 4.695 0 004.593 3.75 4.693 4.693 0 004.688-4.687 4.693 4.693 0 00-4.688-4.688 4.696 4.696 0 00-4.593 3.75h-3.844V6.563h26.25v13.125h-5.626c-1.034 0-1.874.84-1.874 1.875v3.844A4.695 4.695 0 0045.938 30a4.695 4.695 0 003.75 4.593v3.844c0 1.035.84 1.876 1.874 1.876h5.626v13.124h-26.25zm5.625-36.562a2.816 2.816 0 012.812-2.813 2.816 2.816 0 012.813 2.813 2.816 2.816 0 01-2.813 2.813 2.816 2.816 0 01-2.813-2.813zm15 10.485A2.809 2.809 0 0153.437 30c0 1.22-.786 2.252-1.874 2.64v-5.28zm-1.876 5.28A2.809 2.809 0 0147.813 30c0-1.22.786-2.252 1.874-2.64v5.28zm1.876 1.953A4.695 4.695 0 0055.313 30a4.695 4.695 0 00-3.75-4.593v-3.845h5.624v16.875h-5.624v-3.844z" fill="#fff" fill-opacity=".3"/></svg>