<svg width="100" height="92" fill="none" xmlns="http://www.w3.org/2000/svg"><g filter="url(#filter0_d)" fill="#FE1020"><path d="M59.375 54.438a4.693 4.693 0 00-4.688 4.687 4.693 4.693 0 004.688 4.688 4.693 4.693 0 004.688-4.688 4.693 4.693 0 00-4.688-4.688zm0 7.5a2.816 2.816 0 01-2.813-2.813 2.816 2.816 0 012.813-2.813 2.816 2.816 0 012.813 2.813 2.816 2.816 0 01-2.813 2.813zM64.063 46a6.538 6.538 0 014.101-6.085l-.703-1.739A8.404 8.404 0 0062.188 46a8.404 8.404 0 005.273 7.823l.703-1.738A6.538 6.538 0 0164.062 46zM35.938 29.125a4.693 4.693 0 00-4.688-4.688 4.693 4.693 0 00-4.688 4.688 4.693 4.693 0 004.688 4.688 4.693 4.693 0 004.688-4.688zm-4.688 2.813a2.816 2.816 0 01-2.813-2.813 2.816 2.816 0 012.813-2.813 2.816 2.816 0 012.813 2.813 2.816 2.816 0 01-2.813 2.813zm1.29 6.238l-.704 1.739A6.538 6.538 0 0135.938 46a6.538 6.538 0 01-4.102 6.085l.703 1.738A8.404 8.404 0 0037.812 46a8.404 8.404 0 00-5.273-7.824z"/><path d="M77.188 20.688H22.812c-1.034 0-1.875.84-1.875 1.875v46.874c0 1.035.841 1.876 1.875 1.876h54.376a1.876 1.876 0 001.874-1.876V22.563c0-1.035-.84-1.875-1.874-1.875zM28.438 48.64A2.809 2.809 0 0126.563 46c0-1.22.786-2.252 1.875-2.64v5.28zm1.875-5.28A2.809 2.809 0 0132.188 46a2.81 2.81 0 01-1.876 2.64v-5.28zm-1.875-1.953A4.696 4.696 0 0024.688 46a4.696 4.696 0 003.75 4.593v3.844h-5.625V37.564h5.625v3.844zm-5.625 14.906h5.625a1.877 1.877 0 001.875-1.876v-3.844A4.695 4.695 0 0034.063 46a4.695 4.695 0 00-3.75-4.593v-3.844a1.877 1.877 0 00-1.875-1.876h-5.625V22.563h26.25v9.375h-5.798a2.809 2.809 0 00-2.64-1.875 2.816 2.816 0 00-2.813 2.812 2.81 2.81 0 001.876 2.64v19.017a4.695 4.695 0 00-3.75 4.593 4.693 4.693 0 004.687 4.688 4.693 4.693 0 004.688-4.688 4.696 4.696 0 00-3.75-4.593V35.515a2.81 2.81 0 001.702-1.703h5.797v5.7c-3.175.458-5.624 3.189-5.624 6.488 0 3.3 2.45 6.03 5.624 6.487v16.95h-26.25V56.313zm17.812 0a2.816 2.816 0 012.813 2.812 2.816 2.816 0 01-2.813 2.813 2.816 2.816 0 01-2.813-2.813 2.816 2.816 0 012.813-2.813zm0-22.5a.938.938 0 010-1.876.938.938 0 010 1.875zm8.438 16.78A4.695 4.695 0 0145.313 46a4.695 4.695 0 013.75-4.593v9.186zm1.874-9.186A4.695 4.695 0 0154.688 46a4.695 4.695 0 01-3.75 4.593v-9.186zm0 28.03v-16.95c3.176-.457 5.626-3.188 5.626-6.487 0-3.3-2.45-6.03-5.626-6.487v-5.7h3.845a4.695 4.695 0 004.593 3.75 4.693 4.693 0 004.688-4.688 4.693 4.693 0 00-4.688-4.688 4.696 4.696 0 00-4.593 3.75h-3.844v-9.375h26.25v13.125h-5.626a1.876 1.876 0 00-1.874 1.876v3.844A4.695 4.695 0 0065.938 46a4.695 4.695 0 003.75 4.593v3.844c0 1.035.84 1.876 1.874 1.876h5.626v13.124h-26.25zm5.626-36.562a2.816 2.816 0 012.812-2.813 2.816 2.816 0 012.813 2.813 2.816 2.816 0 01-2.813 2.813 2.816 2.816 0 01-2.813-2.813zm15 10.485A2.809 2.809 0 0173.436 46c0 1.22-.786 2.252-1.874 2.64v-5.28zm-1.876 5.28A2.809 2.809 0 0167.814 46c0-1.22.786-2.252 1.874-2.64v5.28zm1.876 1.953A4.695 4.695 0 0075.313 46a4.695 4.695 0 00-3.75-4.593v-3.844h5.624v16.874h-5.624v-3.844z"/></g><defs><filter id="filter0_d" x="0" y="-4" width="100" height="100" filterUnits="userSpaceOnUse" color-interpolation-filters="sRGB"><feFlood flood-opacity="0" result="BackgroundImageFix"/><feColorMatrix in="SourceAlpha" values="0 0 0 0 0 0 0 0 0 0 0 0 0 0 0 0 0 0 127 0"/><feOffset/><feGaussianBlur stdDeviation="10"/><feColorMatrix values="0 0 0 0 0.996078 0 0 0 0 0.0627451 0 0 0 0 0.12549 0 0 0 0.5 0"/><feBlend in2="BackgroundImageFix" result="effect1_dropShadow"/><feBlend in="SourceGraphic" in2="effect1_dropShadow" result="shape"/></filter></defs></svg>