<svg width="15" height="11" fill="none" xmlns="http://www.w3.org/2000/svg"><path d="M14.866 9.355c-.04-.082-.29-.741-1.49-2.096-1.256-1.419-1.087-1.189.426-3.642.922-1.494 1.29-2.407 1.175-2.797-.11-.371-.788-.273-.788-.273l-2.254.016s-.166-.028-.291.062c-.121.09-.199.295-.199.295s-.357 1.156-.833 2.14c-1.005 2.074-1.407 2.184-1.57 2.055-.382-.3-.287-1.207-.287-1.85 0-2.011.25-2.85-.488-3.066C8.02.127 7.84.079 7.214.07 6.409.06 5.728.073 5.342.303c-.256.153-.454.494-.333.513.149.024.486.11.665.407.232.382.224 1.242.224 1.242s.133 2.367-.31 2.661c-.306.202-.723-.21-1.618-2.093-.459-.964-.806-2.03-.806-2.03S3.099.806 2.98.699C2.834.571 2.632.53 2.632.53L.489.547s-.322.01-.44.18c-.105.153-.008.465-.008.465s1.678 4.776 3.577 7.183c1.743 2.207 3.722 2.063 3.722 2.063h.896s.27-.037.409-.218c.127-.167.122-.48.122-.48s-.017-1.463.541-1.678c.55-.212 1.258 1.414 2.007 2.04.566.474.996.37.996.37l2.004-.034s1.048-.08.551-1.082z" fill="#333"/></svg>