<svg version="1.0" xmlns="http://www.w3.org/2000/svg" width="917.333" height="917.333" viewBox="0 0 688 688"><path d="M317.9 12.4c-.2.2-4 .6-8.4 1-16 1.3-24 2.7-26.7 4.6-1.5 1.1-2.9 2-3.2 2-.3 0-3.1 1.2-6.2 2.6-3.1 1.4-6.4 2.7-7.3 2.9-1.4.2-24.8 14.8-28.6 17.8-.5.4-6.2 4.1-12.5 8.1-6.3 4.1-17.9 11.7-25.8 16.8-7.9 5.1-15.1 9.8-16 10.3-.9.6-7.8 5-15.2 9.9-7.4 4.9-16.6 10.9-20.5 13.4-3.8 2.5-7.5 5.2-8.1 6.1-.7.9-17.2 9.7-36.9 19.6l-35.6 18-6 7.8c-3.2 4.2-5.9 7.9-5.9 8.2 0 .3-1.5 2.6-3.4 5.2-10 14.1-26.2 44.9-33.7 64.1-4 10.6-10.5 29.5-11.4 33.6-.2 1.2-.9 3.7-1.4 5.6-2 7.3-3.9 15.4-4.5 19.2-.4 2.4.2 3.3 4.2 6 2.6 1.8 5.5 3.7 6.4 4.3.9.5 9.6 6.3 19.2 12.7L47.9 324l2.6 8.7c1.4 4.9 3.3 10.6 4.1 12.8.9 2.2 1.6 4.2 1.6 4.5.1.6.1.6 2.8 9.5 4.1 13.6 11.2 36 12.2 38.7.6 1.5.9 2.8.9 3-.1.2 1 3.7 2.4 7.8 1.5 4.1 2.8 8.3 3 9.2.4 1.6 5.2 17 6.2 19.8.4.8.7 1.9.8 2.5.2.5 2.8 9.1 6 19 5.8 18.4 7.8 24.6 8 25.5.6 2.9 3 8.6 3.8 9.2.9.5 0 8.4-1.9 16.3-1.1 4.9-3.3 15.8-3.8 19-.4 2.2-.8 4.7-1.1 5.5-.5 1.7-1.5 6.5-2 9.5-.2 1.1-.4 2-.5 2-.2 0-.7 2.6-1.5 7-.3 1.6-1.2 6.1-2 10-.8 3.8-1.7 8-1.9 9.3-.3 1.3-.8 3.2-1.1 4.3-.8 2.5 1.3 4.6 27.5 25.6 2.6 2.1 14.4 11.7 16.5 13.5 1.1.9 9 7.3 17.5 14.2 8.5 6.9 16.2 13.2 17 13.9.8.7 7.6 6.2 15 12.3 15.4 12.5 16.2 13.1 19.8 16.1 3.3 2.8 3.4 2.8 10.8.4 3.2-1 8.6-2.7 11.9-3.7 7.3-2.1 6.7-1.9 8.5-2.7.8-.3 4.9-1.5 9-2.7 4.1-1.2 8.2-2.4 9-2.7.8-.3 2-.7 2.5-.8 1.8-.4 18.7-5.6 28-8.6 10.2-3.3 11.8-3.6 26.5-4.4 5.8-.3 13.4-.7 17-1 3.6-.2 11.7-.7 18-1 6.3-.3 14.7-.8 18.5-1.1 3.9-.2 11.1-.7 16-.9 5-.3 12.6-.7 17-1 4.4-.3 12.5-.8 18-1.1 5.5-.2 13.4-.7 17.5-.9 4.1-.2 12.2-.7 18-1 5.8-.3 12.1-.7 14.1-.9 3.3-.4 4.2.3 19.2 15l15.7 15.3 6.8-3.6c10.2-5.4 19.2-10.7 29.4-17.5 8.2-5.4 23.4-16.3 24.8-17.8.3-.3 3.2-2.7 6.5-5.5 27.2-22.6 52.8-52 72.3-83.1 3.4-5.3 3.8-6.7 4.8-14.4.9-7.4 1.2-9.5 1.4-9.5.1 0 .3-1.4.4-3 .2-1.7.7-5.3 1-8.2l.7-5.1-3.3.9c-17.9 4.9-32.7 8.9-34.8 9.3-1.4.3-6.5 1.6-11.5 3-24.5 6.7-28.8 7.7-29.9 7.3-.7-.3-2-3.3-3.1-6.8-1-3.5-1.9-6.6-2-6.9-.3-.8-1.6-4.3-2.5-6.5-.4-1.1-5.6-16.6-11.4-34.5-5.9-17.9-11-33.2-11.3-34-.3-.8-.7-2-.9-2.5-.6-2.1-7.5-23.1-8.1-24.5-.3-.8-.7-1.7-.7-2-.1-.3-1.7-5.1-3.6-10.7l-3.4-10.2 3.9-15.8c2.1-8.7 4-16.3 4.1-16.8.1-.6 1.2-4.6 2.3-9.1 1.2-4.5 2.4-9 2.6-10 .2-1 1.2-4.8 2-8.4.9-3.6 1.9-7.5 2.1-8.7.2-1.2.9-3.4 1.4-4.8.5-1.4.8-2.5.5-2.5-.2 0 .2-1.8 1-4s1.2-4 1-4c-.3 0 0-1.1.5-2.5s1.2-3.6 1.4-4.8c.2-1.2 1.2-5.1 2.1-8.7l2-8c.2-.8.8-3.5 1.5-6 .6-2.5 1.6-6.1 2.1-8.1s1.5-3.6 2.1-3.6c1.3 0 8.4-1 12.8-1.7 1.4-.3 4.1-.7 6-1 3.5-.5 27.5-4.2 34-5.2 1.9-.3 5.1-.7 7-1 1.9-.2 4.6-.6 6-.9 1.4-.3 4.3-.7 6.5-1.1 7.2-1 10-1.4 12.6-2 2.4-.4 3 .2 7.2 7.7 2.6 4.6 4.7 8.9 4.7 9.6 0 .7.4 1.3.9 1.3s1.3.9 1.6 2c.4 1.1 3.5 7.1 6.9 13.3 7 12.5 13.1 23.8 25.1 46.2 2.1 3.8 4.2 7.4 4.6 7.9 1 1.1-.1-13.3-1.6-21.3-.1-.9-.6-4.1-1-7.1s-.9-6.4-1.1-7.5c-.2-1.1-.7-3.4-1-5-.3-1.7-1-5-1.5-7.5-.6-2.5-1.2-5.2-1.4-6-2.1-9.7-11.6-39.8-15-47.5-.7-1.7-2.1-5-3.1-7.5-3.2-7.9-16.6-34.2-21.7-42.5-6.4-10.4-15.9-24.7-17.3-26-.6-.6-2.2-2.6-3.5-4.5-1.3-1.9-3-4.2-3.7-5-1.3-1.2-1.4-1.1-.7 1 .5 1.4.9 3.4 1.1 4.5.1 1.1 1.7 7.8 3.4 15 1.7 7.1 3.5 15 4 17.5.6 2.5 1.2 5.4 1.5 6.5 1.1 4.6 1.5 6.4 3.5 15 1.1 4.9 2.3 10.1 2.6 11.5.3 1.4.9 4.1 1.4 6 .5 1.9 1.2 5 1.5 6.9.3 1.9.8 3.8 1.1 4.3.3.4-.3.8-1.3.9-1 0-2.5.2-3.3.4-.8.1-3.3.6-5.5.9-8.1 1.3-22.1 3.5-26 4-2.2.4-5.3.8-7 1.1-1.6.3-4.6.7-6.5 1-1.9.2-4.8.7-6.5 1-7.5 1.3-9.8 1.6-13.3 2.1-2 .2-6.4.9-9.7 1.4-3.3.5-6.7 1-7.6 1-1.5 0-12-7.6-12.7-9.2-.2-.5-1-.8-1.7-.8s-1.5-.3-1.7-.8c-.1-.4-4.1-3.6-8.8-7.2-4.7-3.5-8.6-6.8-8.8-7.2-.2-.4-1-.8-1.7-.8s-1.5-.4-1.7-.8c-.1-.4-3.2-3-6.8-5.7-3.6-2.7-6.7-5.2-7-5.5-.3-.3-6.1-4.8-13-10-6.9-5.1-12.9-9.8-13.5-10.2-.5-.5-3.7-2.9-7-5.4-3.3-2.5-6.7-5-7.5-5.7-.8-.7-5.3-4.1-10-7.7-4.7-3.5-9.1-7-9.8-7.7-.7-.7-1.6-1.3-2-1.3-1.6-.1-8.3-6.7-8.6-8.5-.3-1.1-1-4.3-1.6-7-.6-2.8-1.3-5.7-1.5-6.5-.2-.8-2.2-9.8-4.5-20s-4.4-19.6-4.6-21c-.3-1.4-.7-3.2-1.1-4-.3-.8-.7-2.5-.9-3.8-.1-1.3-1.2-6-2.3-10.5-1.1-4.5-2.2-9.3-2.5-10.7-.3-1.4-1.2-5.4-2-9-.7-3.6-1.2-6.7-.9-7 .2-.2 1.4-.5 2.6-.6 1.2-.1 6-.5 10.7-.9 4.7-.3 11.4-.8 15-1 3.6-.2 6.5-.5 6.5-.5 0-.1 2.5-.3 5.5-.5 7-.4 20.3-1.4 25.5-2 2.2-.2 6.2-.5 8.8-.6 4.6-.2 8.7-2.4 7-3.8-.7-.7-4.9-2.6-14.8-6.7-2.2-1-4.2-1.8-4.5-1.9-.3 0-6.8-2.2-14.5-4.7-15.2-5-30.8-9.2-42-11.3-1.6-.3-4.1-.8-5.5-1-1.4-.3-4.1-.8-6-1-1.9-.3-4.6-.7-6-1-1.4-.2-5.4-.7-9-1-3.6-.4-7.6-.9-9-1.2-3-.5-53.6-1.3-54.1-.9zM285 37.5c3 .4 6.4.9 7.5 1.1 1.1.3 4.5.7 7.5 1 3 .2 6.2.7 7 .9.8.2 4 .7 7 1 3 .3 6.2.8 7 1 1.3.4 6.3 1 14.5 1.9 2.1.3 9.9 1.4 15 2.3 1.7.2 4.4.6 6 .8 6.1.7 21.5 2.8 30 4.1 3.2.6 4.4 1.8 4.6 4.9 0 1.1.2 2.7.5 3.5.2.8.8 3.3 1.3 5.5s1.2 5.1 1.5 6.5c.3 1.4.8 3.4 1 4.5.2 1.1 2 9.2 4 18s3.8 16.9 4.1 18c.2 1.1 1.3 6 2.5 11 1.1 4.9 2.3 10.1 2.6 11.5.3 1.4 1 4.3 1.6 6.5.5 2.2 1.1 4.9 1.3 6 .1 1.1.4 2.4.5 3 .5 2.2-.1 3.2-2.5 4.3-1.4.7-3.1 1.7-3.8 2.3-1.7 1.5-19.6 12.9-20.3 12.9-.2 0-1 .5-1.7 1.1-1.6 1.4-50.7 32.9-51.3 32.9-.3 0-1 .5-1.7 1-.7.6-5.5 3.8-10.7 7.1-5.2 3.4-12.4 8-15.9 10.4-5.8 3.8-6.8 4.1-10.5 3.4-2.3-.4-5.9-1-8.1-1.3-2.2-.4-6.7-1.1-10-1.7-3.3-.7-6.9-1.3-8-1.4-2.6-.4-8.4-1.4-11.1-1.9-2.5-.5-8.7-1.5-12.9-2.1-1.6-.3-4.1-.7-5.5-1-5.2-1-7.6-1.4-11-1.9-1.9-.3-4.6-.8-6-1-1.4-.3-4.1-.7-6-1-1.9-.3-4.4-.7-5.5-.9-2.6-.5-8-1.5-12.5-2.2-1.9-.3-6.2-1-9.5-1.6-3.3-.6-7.3-1.3-9-1.5-1.6-.2-4.1-.6-5.5-.9-3.6-.8-5.9-1.2-11-1.9-2.5-.4-6.8-1.2-9.6-1.7l-5.1-1-.2-4.2c0-2.3-.3-5.1-.5-6.2-.4-1.9-1.1-8.7-2.2-19-.2-2.8-.7-6.8-.9-9-.3-2.2-.7-6.5-.9-9.5-.3-3-.7-6.9-1-8.5-.2-1.7-.8-6.3-1.1-10.2-.6-6.5-.4-7.7 1.6-11 1.3-2.1 2.9-4.4 3.6-5.1.7-.7 1.6-1.9 2-2.6.5-.6 2.6-2.3 4.8-3.6 2.2-1.3 4.2-2.6 4.5-3 .8-.9 8.9-6 9.5-6 .6 0 2-1.1 5-3.8.7-.6 1.6-1.2 1.9-1.2.5 0 16.3-10.1 33-21.1 4.8-3.3 9-5.9 9.2-5.9.3 0 1-.5 1.7-1.1.7-.6 5.5-3.8 10.8-7.2 15.6-10.2 26-16.8 33.6-21.8 7.9-5.1 9.3-5.3 23.3-3.4zM149.6 212.4c1.6.3 4.5.7 6.4 1 1.9.3 4.6.8 6 1.1 1.4.3 4.1.8 6 1 1.9.2 4.6.7 6 1 1.4.3 4.1.7 6 1 1.9.3 4.6.7 6 1 1.4.3 5.4 1 9 1.5 3.6.6 7.6 1.3 9 1.5 3.5.7 6.9 1.3 11 1.9 1.9.3 4.6.8 6 1 3.6.7 14 2.5 17.5 3 1.7.3 7.3 1.2 12.5 2.1 5.2.9 10.6 1.8 12 2.1 1.4.2 3.5.5 4.7.8 1.1.2 4.3.8 7 1.2 2.6.3 5.7.8 6.8 1 1.1.2 3.4.7 5 .9 5.5 1 6.4 1.6 7.4 4.8 4.4 14.3 12.4 39.7 13.1 41.7.9 2.7 8.3 26 8.6 27.2.1.5.3 1 .4 1.3.1.3.3.8.4 1.2.4 1.6 6.7 21.8 7.3 23.3.3.8.8 2.6 1 4 .2 1.3.8 2.9 1.2 3.5.4.5 1.8 4.6 3 9 1.3 4.4 2.7 8.9 3.2 10 .4 1.1 2.3 7.1 4.3 13.4 2.8 9.2 3.3 11.7 2.3 13.1-1 1.4-8.5 10.2-13.2 15.4-.5.6-4.3 4.9-8.4 9.6-4.1 4.7-8.3 9.2-9.3 10.2-1 .9-1.8 1.9-1.8 2.3 0 .4-.8 1.5-1.8 2.4-1 .9-6.9 7.4-13.1 14.6-6.2 7.1-12.7 14.6-14.5 16.5-1.7 1.9-4.9 5.5-7 8-5.8 6.7-14.8 16.9-17.6 20-1.4 1.5-3.6 4-4.9 5.6-1.3 1.6-5.5 6.4-9.3 10.6-6.3 7-7.1 7.6-9.4 6.8-1.3-.5-3.5-1.2-4.7-1.4-1.2-.3-3.3-.8-4.7-1.1-1.4-.3-3.6-.8-5-1.1-1.4-.3-4.3-1-6.5-1.5-6-1.5-11.7-2.9-14.5-3.4-1.4-.3-4.1-.9-6-1.5-1.9-.5-9.3-2.4-16.5-4-7.1-1.7-14.1-3.4-15.5-3.7-1.4-.3-2.9-.7-3.5-.8-.5-.2-4.9-1.2-9.7-2.4-4.8-1.1-9.8-2.3-11-2.5-1.3-.3-6.5-1.5-11.5-2.7l-9.3-2.2-2.6-8.6c-1.4-4.7-3-9.5-3.4-10.6-.5-1.1-2.9-8.8-5.5-17-2.6-8.3-7.6-24.2-11.2-35.5-3.5-11.3-8.3-26.4-10.5-33.5-2.2-7.2-4.3-13.7-4.6-14.5-.3-.8-.6-1.7-.7-2-.5-2-8.8-27.9-9.4-29.5-.7-1.6 1.3-5 9.6-16.5 5.7-8 11.2-15.6 12.1-17 .9-1.4 2.5-3.4 3.4-4.4 1-1.1 1.8-2.5 1.8-3.2 0-.7.4-1.4.8-1.6.4-.2 2.3-2.5 4.2-5.3 1.9-2.7 4-5.6 4.7-6.5.6-.8 9.2-12.8 18.9-26.5 24.2-34.2 27.5-38.6 28.3-38 .4.2 2.1.6 3.7.9zm355.1 180.5l4.1.1 2.3 7.2c1.2 4 2.3 7.5 2.4 7.8.1.3.4 1.2.7 2 1.7 4.3 9.1 26.7 9.2 27.7.1.7.5 1.6.9 1.9.4.4.7 1.8.7 3 0 1.3.4 2.5.9 2.8.4.3 1.2 2 1.6 3.8.4 1.8.9 3.5 1 3.8.1.3.7 1.7 1.3 3.3.7 1.5 1.4 3.8 1.6 5 .3 1.2 1.4 4.6 2.5 7.5 1.1 2.9 2 5.5 2.1 5.7 0 .3.2 1 .5 1.7 5.5 16.8 6.7 20.5 6.9 21.3.2.5.6 1.7.9 2.5 1.4 3.8 4.7 13.1 4.7 13.5 0 .3.3 1 .5 1.7 4 11.6 4 14.2-.2 18.5-1.5 1.6-5 5.4-7.8 8.5-2.7 3-8.2 9.1-12.2 13.4-3.9 4.3-8 8.8-9 10-1 1.2-5.4 6.1-9.8 10.9-4.4 4.8-8.9 9.7-10 11-3.8 4.2-18 19.8-20.5 22.5-1.4 1.5-5.4 5.9-8.8 9.7-7.7 8.6-6.7 8.3-37.2 9.8-6.3.3-14.9.8-19 1.1-4.1.2-11.5.6-16.5.9-9.6.4-26.5 1.4-35.5 2-3 .2-11.1.7-18 1-6.9.4-15 .9-18 1.1-3 .2-10.6.6-16.7.9l-11.3.6-2.6-5.8c-1.4-3.2-2.7-6.3-2.8-6.9-.1-.7-.7-1.8-1.3-2.5-.6-.8-1.4-2.5-1.8-3.9-.4-1.4-1.8-4.6-3.1-7.2-1.4-2.7-2.4-5-2.4-5.3-.1-.6-3.4-8.7-5.5-13-3-6.6-6.8-15.2-8.5-19.5-1-2.5-2.9-7-4.3-10-1.3-3-4.8-10.9-7.7-17.5-9.1-20.7-12.9-29.3-14.1-31.6-.8-1.5 3.1-6.4 23.3-29.1 3.3-3.7 6.8-7.6 7.7-8.6 8.6-9.9 12.8-14.7 13.6-15.6.6-.6 4.2-4.7 8-9.1 9-10.3 11.5-13.2 14.5-16.5 1.4-1.5 4.4-4.9 6.7-7.7 2.4-2.7 5.3-6.1 6.5-7.5 6.5-7.1 12.3-13.7 21.5-24.5 1.2-1.4 3.3-2.3 5.9-2.5 3.1-.2 135.7-.1 152.1.1z"/></svg>