<svg width="28" height="25" fill="none" xmlns="http://www.w3.org/2000/svg"><path d="M10.177 16.86c-1.952.603-3.675.986-6.15 1.671.95 10.826 12.314 6.527 6.15-1.67zM5.857.07C.794-.598.159 3.666.03 6.916c-.283 1.82 1.424 8.838 3.502 10.16 2.046-.465 4.055-.92 6.084-1.332.524-.251.358-.17.846-1.49.534-1.874.798-5 .345-7.228C9.983 2.976 8.23.628 5.857.07z" fill="#DEDEDE"/><path d="M17.823 16.86c1.952.603 3.675.986 6.15 1.671-.95 10.826-12.314 6.527-6.15-1.67zM22.143.07c5.063-.668 5.698 3.596 5.826 6.846.283 1.82-1.424 8.838-3.502 10.16-2.046-.465-4.055-.92-6.084-1.332-.524-.251-.358-.17-.846-1.49-.534-1.874-.798-5-.345-7.228.825-4.05 2.578-6.398 4.951-6.956z" fill="#333"/></svg>