<svg width="86" height="81" fill="none" xmlns="http://www.w3.org/2000/svg"><path d="M72.104 0h-57.37v80.839h57.37V0zM48.45 41.723c-.583 2.244-2.607 3.912-5.03 3.912-2.425 0-4.448-1.668-5.031-3.912h10.06zm2.792-39.115v2.607H35.596V2.608h15.646zm-18.253 0v5.215H53.85V2.608h3.912v10.43H29.077V2.609h3.912zm5.4 36.507c.583-2.243 2.606-3.911 5.03-3.911 2.424 0 4.448 1.668 5.03 3.911H38.39zm12.736 0c-.623-3.693-3.836-6.519-7.706-6.519-3.87 0-7.08 2.826-7.705 6.52H17.342V2.607h9.127v13.038h9.595c1.092 3.073 4.02 5.216 7.355 5.216 3.336 0 6.265-2.143 7.355-5.216h9.595V2.608h9.127v36.507H51.125zM38.913 15.646h9.012a5.228 5.228 0 01-4.506 2.608 5.228 5.228 0 01-4.506-2.608zm-3.317 62.585v-2.608h15.646v2.608H35.596zm18.254 0v-5.215H32.99v5.215h-3.912v-10.43h28.685v10.43H53.85zm6.52 0V65.193h-9.596c-1.091-3.074-4.02-5.216-7.355-5.216-3.335 0-6.265 2.142-7.355 5.215H26.47v13.039h-9.127V41.723h18.372c.623 3.694 3.836 6.52 7.705 6.52 3.87 0 7.082-2.826 7.706-6.52h18.371v36.508H60.37zM47.924 65.193h-9.012a5.228 5.228 0 014.506-2.608 5.228 5.228 0 014.506 2.607z" fill="#333" fill-opacity=".1"/><g filter="url(#filter0_d)"><circle cx="43.5" cy="40.5" transform="rotate(90 43.5 40.5)" fill="#FE1020" r="3.5"/></g><g filter="url(#filter1_d)"><circle cx="62.5" cy="33.5" transform="rotate(90 62.5 33.5)" fill="#FE1020" r="3.5"/></g><g filter="url(#filter2_d)"><circle cx="23.5" cy="33.5" transform="rotate(90 23.5 33.5)" fill="#FE1020" r="3.5"/></g><defs><filter id="filter0_d" x="20" y="17" width="47" height="47" filterUnits="userSpaceOnUse" color-interpolation-filters="sRGB"><feFlood flood-opacity="0" result="BackgroundImageFix"/><feColorMatrix in="SourceAlpha" values="0 0 0 0 0 0 0 0 0 0 0 0 0 0 0 0 0 0 127 0"/><feOffset/><feGaussianBlur stdDeviation="10"/><feColorMatrix values="0 0 0 0 0.996078 0 0 0 0 0.0627451 0 0 0 0 0.12549 0 0 0 0.5 0"/><feBlend in2="BackgroundImageFix" result="effect1_dropShadow"/><feBlend in="SourceGraphic" in2="effect1_dropShadow" result="shape"/></filter><filter id="filter1_d" x="39" y="10" width="47" height="47" filterUnits="userSpaceOnUse" color-interpolation-filters="sRGB"><feFlood flood-opacity="0" result="BackgroundImageFix"/><feColorMatrix in="SourceAlpha" values="0 0 0 0 0 0 0 0 0 0 0 0 0 0 0 0 0 0 127 0"/><feOffset/><feGaussianBlur stdDeviation="10"/><feColorMatrix values="0 0 0 0 0.996078 0 0 0 0 0.0627451 0 0 0 0 0.12549 0 0 0 0.5 0"/><feBlend in2="BackgroundImageFix" result="effect1_dropShadow"/><feBlend in="SourceGraphic" in2="effect1_dropShadow" result="shape"/></filter><filter id="filter2_d" x="0" y="10" width="47" height="47" filterUnits="userSpaceOnUse" color-interpolation-filters="sRGB"><feFlood flood-opacity="0" result="BackgroundImageFix"/><feColorMatrix in="SourceAlpha" values="0 0 0 0 0 0 0 0 0 0 0 0 0 0 0 0 0 0 127 0"/><feOffset/><feGaussianBlur stdDeviation="10"/><feColorMatrix values="0 0 0 0 0.996078 0 0 0 0 0.0627451 0 0 0 0 0.12549 0 0 0 0.5 0"/><feBlend in2="BackgroundImageFix" result="effect1_dropShadow"/><feBlend in="SourceGraphic" in2="effect1_dropShadow" result="shape"/></filter></defs></svg>