<svg width="86" height="83" fill="none" xmlns="http://www.w3.org/2000/svg"><path d="M37.771 28.282L17.237 24.8l.227-1.32 20.36 3.453 15.547-1.446-5.475-24.149 1.306-.296 5.811 25.637-17.242 1.603zM70.42 75.826h-1.339v-11.71l-7.818-23.397-14.124 2.888-18.093 20.606-1.006-.884 18.39-20.944 15.728-3.216 8.264 24.73v11.927h-.001zm-3.48-46.23l12.97-1.98.202 1.324-12.971 1.981-.202-1.325zM20.388 68.395l-7.767-8.305-6.68-21.172-.27-9.163 1.494-.043.266 9.058 6.511 20.546 7.537 8.06-1.09 1.02z" fill="#333"/><path d="M34.874 79.638l-.097-1.336 22.521-1.29 13.035-2.264.229 1.32-13.1 2.27-22.588 1.3zm-19.532-62.24l-1.148-.798 3.317-4.767 15.6-10.144 10.998-.45.057 1.396-10.615.435-15.049 9.785-3.16 4.543z" fill="#333"/><path d="M60.496 3.886l-.222.422-10.644.817s-.066-.006-.2-.027c-1.903-.261-16.935-2.331-17.51-2.431-.617-.1 3.375-1.843 3.375-1.843l.267-.26A42.697 42.697 0 0142.53 0a43.242 43.242 0 0117.966 3.886zM18.522 24.309L7.402 39.944 0 35.007A43.17 43.17 0 018.313 16.74l.006-.006c3.792-1.956 8.662-4.387 8.903-4.509l.006-.006 1.294 12.09zm67.229 16.005L79.213 28.27l-2.725-11.857a43.055 43.055 0 019.263 23.901zm-5.345 20.833l-.616 4.314s0 .006-.007.006a43.6 43.6 0 01-7.242 9.117 43.344 43.344 0 01-10.67 7.523l-4.523-4.428 12.4-13.672 10.658-2.86zm-69.637 9.855l2.543-12.4 17.33 4.134 7.153 16.375-12.4 3.815-14.626-11.924zM52.182 17.22L36.356 27.36l6.388 20.238h21.524l4.43-17.725L52.181 17.22z" fill="#333"/></svg>