<svg width="240" height="118" fill="none" xmlns="http://www.w3.org/2000/svg"><path d="M162.229 46.479h-37.716c-4.366-7.31-12.371-12.21-21.528-12.21-9.157 0-17.162 4.9-21.528 12.21h-30.2l-25.064-.186L21.55 59l-4.574 12.521L0 118l34.279-25.043 7.83-21.436h39.096c4.305 7.55 12.442 12.648 21.78 12.648 9.337 0 17.476-5.097 21.78-12.648h28.316l-7.83 21.436h-46.08l-31.729.23L33.5 118h127.736l26.125-71.521h-25.132z" fill="#F1F1F1"/><path d="M103.287 85.371c14.328 0 25.944-11.574 25.944-25.851 0-14.278-11.616-25.852-25.944-25.852-14.329 0-25.944 11.574-25.944 25.852 0 14.277 11.615 25.851 25.944 25.851z" fill="url(#paint0_linear)"/><path d="M58.483 25.314h42.18L134.782.272H42.498l-9.147 25.042h25.132zM168.788 0l-34.257 25.043h55.638L240 0h-71.212z" fill="#F1F1F1"/><path d="M205.646 25.043L239.903 0h-59.991l-34.865 25.043h60.599z" fill="#F1F1F1"/><path d="M100.363 52.212l-10.007-1.69.11-.642 9.923 1.677 7.577-.702-2.668-11.728.637-.144 2.832 12.45-8.404.78zm15.914 23.09h-.653v-5.687l-3.81-11.363-6.884 1.403-8.818 10.007-.49-.43 8.962-10.17 7.666-1.563 4.027 12.01v5.793zm-1.696-22.452l6.322-.961.098.643-6.322.962-.098-.643zM91.892 71.693l-3.785-4.033-3.256-10.282-.131-4.45.727-.022.13 4.4 3.173 9.977 3.673 3.914-.53.496z" fill="#333"/><path d="M98.953 77.153l-.048-.648 10.977-.627 6.352-1.1.112.642-6.385 1.102-11.008.631zm-9.52-30.227l-.56-.387 1.617-2.316 7.603-4.926 5.36-.219.028.678-5.174.212-7.334 4.752-1.54 2.206z" fill="#333"/><path d="M111.44 40.364l-.108.205-5.188.397s-.032-.003-.098-.013c-.927-.127-8.253-1.132-8.534-1.18-.3-.05 1.645-.895 1.645-.895l.13-.127a20.883 20.883 0 013.396-.274c3.125 0 6.089.677 8.757 1.887zm-20.458 9.919l-5.42 7.593-3.607-2.397a20.931 20.931 0 014.051-8.872l.003-.003c1.848-.95 4.222-2.13 4.34-2.19l.002-.002.63 5.871zm32.766 7.773l-3.186-5.85-1.328-5.758a20.872 20.872 0 014.514 11.608zm-2.605 10.117l-.3 2.095s0 .003-.003.003a21.12 21.12 0 01-8.731 8.081l-2.204-2.15 6.043-6.64 5.195-1.389zM87.204 72.96l1.24-6.023 8.445 2.008 3.487 7.952-6.044 1.853-7.128-5.79zm20.184-26.12l-7.714 4.925 3.114 9.828h10.49l2.159-8.608-8.049-6.144z" fill="#333"/><defs><linearGradient id="paint0_linear" x1="77.343" y1="59.52" x2="129.231" y2="59.52" gradientUnits="userSpaceOnUse"><stop stop-color="#E12F22"/><stop offset=".283" stop-color="#E12122"/><stop offset="1" stop-color="#E10022"/></linearGradient></defs></svg>