<svg width="134" height="48" fill="none" xmlns="http://www.w3.org/2000/svg"><path d="M63.074 18.135H48.41a9.728 9.728 0 00-8.37-4.764 9.729 9.729 0 00-8.37 4.764H19.928l-9.745-.073-1.804 4.959L6.6 27.906 0 46.041l13.327-9.771 3.045-8.364h15.2a9.73 9.73 0 008.468 4.935 9.729 9.729 0 008.468-4.935h11.01l-3.045 8.364H38.557l-12.336.09-13.197 9.681h49.664l10.157-27.906h-9.771z" fill="url(#paint0_linear)"/><path d="M40.157 33.31c5.571 0 10.087-4.516 10.087-10.087 0-5.57-4.516-10.087-10.087-10.087-5.57 0-10.086 4.516-10.086 10.087S34.587 33.31 40.157 33.31z" fill="#fff"/><path d="M22.738 9.877h16.4L52.401.107H16.524l-3.557 9.77h9.77z" fill="url(#paint1_linear)"/><path d="M82.93 24.407h2.62l-.671 1.846h-2.621l-1.941 5.333h-2.03l4.702-12.918h5.37l-.672 1.845h-3.34l-1.417 3.894zm5.112-2.639c.753-2.067 2.272-3.248 4.264-3.248 1.993 0 2.653 1.181 1.9 3.248l-2.445 6.717c-.752 2.068-2.27 3.249-4.264 3.249-1.993 0-2.652-1.181-1.9-3.249l2.445-6.717zm-.462 6.847c-.335.923-.057 1.273.589 1.273s1.18-.35 1.515-1.273l2.54-6.976c.335-.923.057-1.273-.59-1.273-.645 0-1.179.35-1.514 1.273l-2.54 6.976zm7.77-6.847c.752-2.067 2.27-3.248 4.264-3.248 1.993 0 2.652 1.181 1.9 3.248l-2.445 6.717c-.752 2.068-2.271 3.249-4.264 3.249-1.993 0-2.653-1.181-1.9-3.249l2.445-6.717zm-.462 6.847c-.336.923-.058 1.273.588 1.273s1.18-.35 1.516-1.273l2.539-6.976c.336-.923.057-1.273-.589-1.273s-1.18.35-1.515 1.273l-2.54 6.976zm8.474-9.947h6.274l-.672 1.845h-2.122l-4.03 11.073h-2.031l4.031-11.073h-2.122l.672-1.846zm12.15 2.971l-.168.461c-.484 1.33-1.199 2.178-2.257 2.603.934.424 1.002 1.402.505 2.768l-.383 1.052c-.725 1.993-2.167 3.063-4.197 3.063h-3.192l4.701-12.918h3.064c2.104 0 2.652.978 1.927 2.97zm-3.632-1.126l-1.243 3.414h.794c.757 0 1.339-.332 1.715-1.365l.262-.72c.336-.923.17-1.329-.55-1.329h-.978zm-1.914 5.26l-1.445 3.968h1.163c.683 0 1.166-.314 1.516-1.274l.409-1.125c.437-1.2.184-1.57-.739-1.57h-.904zm9.916 5.813h-2.049l.503-2.344h-2.492l-1.203 2.344h-1.864l6.768-12.918h2.972l-2.635 12.918zm-3.141-4.097h1.956l1.4-6.533-3.356 6.533zm8.783-8.821h2.03l-4.03 11.073h3.341l-.672 1.845h-5.37l4.701-12.918zm6.256 0h2.03l-4.03 11.073h3.34l-.672 1.845h-5.37l4.702-12.918zM80.149 33.974c1.975 0 2.56 1.181 1.807 3.248l-.147.406h-1.92l.195-.535c.336-.923.094-1.274-.551-1.274-.646 0-1.143.351-1.479 1.274-.967 2.657 2.82 3.155 1.476 6.847-.752 2.067-2.216 3.248-4.209 3.248-1.993 0-2.596-1.181-1.844-3.248l.289-.794h1.919l-.336.923c-.336.922-.05 1.254.595 1.254.646 0 1.173-.332 1.509-1.254.967-2.658-2.82-3.156-1.476-6.847.752-2.067 2.197-3.248 4.172-3.248zm8.971 3.34l-.612 1.68c-.752 2.067-2.158 3.193-4.188 3.193h-.96l-1.766 4.853h-2.03l4.701-12.918h2.99c2.03 0 2.617 1.125 1.865 3.192zm-3.496-1.347l-1.592 4.374h.96c.646 0 1.104-.295 1.44-1.218l.705-1.938c.336-.922.093-1.218-.553-1.218h-.96zm7.227 11.073h-2.048l.502-2.344h-2.492L87.61 47.04h-1.864l6.769-12.919h2.97L92.852 47.04zm-3.141-4.097h1.956l1.4-6.533-3.356 6.533zm11.704-.72l-.625 1.717c-.752 2.067-2.216 3.248-4.209 3.248-1.993 0-2.596-1.181-1.844-3.248l2.445-6.718c.752-2.067 2.216-3.248 4.209-3.248 1.993 0 2.596 1.181 1.844 3.248l-.457 1.255h-1.919l.504-1.384c.336-.923.057-1.274-.589-1.274s-1.18.351-1.515 1.274l-2.539 6.976c-.336.922-.05 1.255.595 1.255.646 0 1.173-.332 1.51-1.255l.67-1.846h1.92zm4.233-2.657h2.787l-.672 1.845h-2.787l-1.377 3.783h3.507l-.672 1.846h-5.536l4.702-12.919h5.536l-.671 1.846h-3.507l-1.31 3.599z" fill="#333"/><path d="M65.624 0l-13.32 9.771h21.632L93.311 0H65.624z" fill="url(#paint2_linear)"/><path d="M79.954 9.771L93.273 0H69.949L56.394 9.771h23.56z" fill="url(#paint3_linear)"/><path d="M39.021 20.372l-3.89-.66.042-.25 3.858.654 2.946-.274-1.037-4.575.247-.057 1.101 4.858-3.267.304zm6.187 9.009h-.254v-2.219l-1.481-4.433-2.677.547-3.428 3.905-.191-.168 3.485-3.969 2.98-.609 1.566 4.686v2.26zm-.66-8.76l2.458-.375.038.251-2.458.375-.038-.25zm-8.821 7.352L34.255 26.4l-1.266-4.011-.05-1.737.282-.008.05 1.716 1.235 3.894 1.428 1.527-.207.193z" fill="#333"/><path d="M38.472 30.104l-.018-.253 4.267-.245 2.47-.429.044.25-2.483.43-4.28.247zM34.77 18.31l-.217-.152.629-.903 2.956-1.922 2.084-.085.01.264-2.01.083-2.852 1.854-.6.86z" fill="#333"/><path d="M43.327 15.75l-.042.08-2.017.154-.038-.005c-.36-.05-3.209-.442-3.318-.46-.117-.02.64-.35.64-.35l.05-.05c.43-.07.871-.106 1.32-.106 1.216 0 2.368.264 3.405.736zm-7.954 3.87l-2.107 2.962-1.402-.935a8.18 8.18 0 011.575-3.462l.001-.001c.719-.37 1.642-.831 1.687-.854l.001-.002.245 2.291zm12.74 3.032l-1.239-2.282-.517-2.247a8.159 8.159 0 011.756 4.529zM47.1 26.6l-.117.817-.001.001a8.212 8.212 0 01-3.394 3.153l-.857-.838 2.35-2.591L47.1 26.6zm-13.196 1.867l.482-2.35 3.284.784 1.356 3.103-2.35.723-2.772-2.26zm7.848-10.191l-3 1.922 1.211 3.834h4.079l.84-3.358-3.13-2.398z" fill="#333"/><defs><linearGradient id="paint0_linear" x1="0" y1="29.706" x2="72.845" y2="29.706" gradientUnits="userSpaceOnUse"><stop stop-color="#E12F22"/><stop offset=".283" stop-color="#E12122"/><stop offset="1" stop-color="#E10022"/></linearGradient><linearGradient id="paint1_linear" x1="12.967" y1="4.992" x2="52.402" y2="4.992" gradientUnits="userSpaceOnUse"><stop stop-color="#E12F22"/><stop offset=".283" stop-color="#E12122"/><stop offset="1" stop-color="#E10022"/></linearGradient><linearGradient id="paint2_linear" x1="52.305" y1="4.886" x2="93.311" y2="4.886" gradientUnits="userSpaceOnUse"><stop stop-color="#E12F22"/><stop offset=".283" stop-color="#E12122"/><stop offset="1" stop-color="#E10022"/></linearGradient><linearGradient id="paint3_linear" x1="93.273" y1="4.885" x2="56.394" y2="4.885" gradientUnits="userSpaceOnUse"><stop stop-color="#E12F22"/><stop offset=".283" stop-color="#E12122"/><stop offset="1" stop-color="#E10022"/></linearGradient></defs></svg>