<svg width="68" height="18" fill="none" xmlns="http://www.w3.org/2000/svg"><path d="M21.89 6.559c0 .023-.726 1.597-2.18 4.722-1.476 3.188-2.32 4.98-2.53 5.38a1.48 1.48 0 01-.13.233c-.03.04-.105.075-.222.106-.195.047-.75.07-1.664.07-.851 0-1.371-.023-1.559-.07-.156-.04-.25-.07-.28-.094a.888.888 0 01-.153-.222c-.047-.086-.27-.637-.668-1.653l-1.277-3.258-1.301 3.293c-.133.375-.352.914-.656 1.618a1.557 1.557 0 01-.165.246c-.03.023-.12.047-.27.07-.265.047-.776.07-1.534.07-.938 0-1.5-.023-1.688-.07-.133-.031-.242-.145-.328-.34C2.223 10.371.691 7.004.691 6.56c0-.625.02-1.559.059-2.801C.797 2.508.82 1.57.82.945.82.688.898.56 1.055.56 1.5.56 2.172.58 3.07.618c.907.04 1.586.059 2.04.059.18 0 .269.074.269.222 0 .625-.031 1.57-.094 2.836a71.25 71.25 0 00-.082 2.825c0 .234.285.98.856 2.238.515 1.125.89 1.887 1.125 2.285.117.203.195.305.234.305.062 0 .223-.375.48-1.125.735-2.102 1.11-3.344 1.125-3.727.032-.719.036-1.633.012-2.742A388.571 388.571 0 019 1.039c0-.148.012-.234.035-.258.024-.031.11-.058.258-.082.398-.047 1.086-.07 2.063-.07 1.492 0 2.238.105 2.238.316 0 .524-.02 1.336-.059 2.438a52.241 52.241 0 00-.047 2.437v.598c0 .398.403 1.668 1.207 3.809.274.742.438 1.113.492 1.113.04 0 .118-.102.235-.305.219-.383.57-1.14 1.055-2.273.539-1.235.808-1.969.808-2.203 0-.633-.031-1.579-.094-2.836A72.068 72.068 0 0117.11.887c0-.14.09-.211.27-.211.46 0 1.152-.02 2.074-.059.93-.039 1.625-.058 2.086-.058.148 0 .223.156.223.468 0 .618.02 1.543.058 2.778.047 1.226.07 2.144.07 2.754zm15.422 7.793c0 .125-.081.289-.246.492-1.437 1.71-3.347 2.566-5.73 2.566-2.438 0-4.414-.832-5.93-2.496-1.476-1.61-2.215-3.64-2.215-6.094 0-2.375.723-4.39 2.168-6.047C26.867 1.04 28.785.172 31.113.172c2.532 0 4.516.777 5.953 2.332.157.172.235.324.235.457 0 .148-.274.7-.82 1.652-.54.953-.88 1.489-1.02 1.606a.318.318 0 01-.234.093c-.04 0-.235-.156-.586-.468a6.182 6.182 0 00-1.243-.88 4.203 4.203 0 00-1.921-.468c-1.149 0-2.067.43-2.754 1.29-.633.796-.95 1.78-.95 2.952 0 1.188.317 2.184.95 2.989.687.875 1.605 1.312 2.754 1.312a4.36 4.36 0 001.933-.445 5.962 5.962 0 001.219-.82c.344-.297.535-.446.574-.446.078 0 .156.043.234.129.126.14.465.629 1.02 1.465.57.867.855 1.344.855 1.43zm15.118-2.415c0 1.438-.45 2.63-1.348 3.575-1.023 1.086-2.82 1.629-5.39 1.629-.196 0-.477-.004-.844-.012h-.832c-2.883 0-4.598-.059-5.145-.176-.227-.047-.34-.168-.34-.363 0-.836.047-2.102.14-3.797.102-1.695.153-2.965.153-3.809 0-.906-.047-2.609-.14-5.109-.024-.64-.067-1.602-.13-2.883l-.011-.164c-.008-.148.113-.238.363-.27.258-.03 1.164-.046 2.719-.046 2.492 0 3.95.008 4.371.023 1.922.07 3.34.383 4.254.938 1.21.742 1.816 1.996 1.816 3.761 0 .461-.14.95-.422 1.465a6.092 6.092 0 01-.796 1.102c-.29.32-.434.469-.434.445 0 .055.102.14.305.258.547.312.976.809 1.289 1.488.281.61.422 1.258.422 1.945zM47.39 5.34c0-.672-.335-1.117-1.007-1.336-.375-.117-.992-.176-1.852-.176-.843 0-1.265.063-1.265.188 0 .148-.016.375-.047.68a8.919 8.919 0 00-.035.667c0 .782.066 1.219.199 1.313.086.07.582.105 1.488.105 1.68 0 2.52-.48 2.52-1.441zm.352 6.55c0-.703-.293-1.18-.879-1.43-.375-.155-.984-.233-1.828-.233-1.008 0-1.554.039-1.64.117-.086.07-.13.547-.13 1.43 0 .921.051 1.433.153 1.535.102.093.664.14 1.688.14.843 0 1.437-.066 1.78-.199.571-.227.856-.68.856-1.36zm19.63-7.078c0 .336-.063.63-.188.88C66.16 7.714 64.766 9.843 63 12.077c-.25.328-.375.625-.375.89 0 .415.023 1.036.07 1.864.047.828.07 1.445.07 1.852 0 .14-.03.226-.093.257a2.929 2.929 0 01-.316.059c-.282.047-.985.07-2.11.07-1.133 0-1.855-.023-2.168-.07-.219-.031-.328-.145-.328-.34 0-.414.035-1.043.105-1.887.07-.851.106-1.488.106-1.91 0-.25-.094-.52-.281-.808-.946-1.336-2.297-3.383-4.055-6.14-.18-.306-.27-.556-.27-.75 0-.47-.023-1.173-.07-2.11-.047-.938-.07-1.64-.07-2.11 0-.257.078-.386.234-.386.477 0 1.2.02 2.168.058.969.04 1.696.059 2.18.059.18 0 .27.058.27.176 0 .398-.02 1-.06 1.804a50.192 50.192 0 00-.046 1.793c0 .235.344.82 1.031 1.758.547.734.996 1.3 1.348 1.7.32-.376.746-.938 1.277-1.688.672-.938 1.008-1.504 1.008-1.7 0-.39-.031-.98-.094-1.769a28.69 28.69 0 01-.081-1.78c0-.164.035-.258.106-.281h.293c.468 0 1.171-.02 2.109-.06.945-.046 1.656-.07 2.133-.07.156 0 .234.169.234.504 0 .415.008 1.04.024 1.875.015.829.023 1.454.023 1.876z" fill="#fff"/></svg>