<svg width="88" height="21" fill="none" xmlns="http://www.w3.org/2000/svg"><g clip-path="url(#clip0)" fill="#fff"><path d="M24.808.089h4.516l-5.777 20.733H19.06L14.78 7.494l-4.223 13.328H6.07L0 .09h5.308l3.46 13.091L12.609.09h4.721l3.96 13.09L24.808.09zm19.646 2.814C42.548.977 39.645 0 35.804 0h-.616c-.264 0-.674.03-1.173.03h-.176l-1.202 4.413h3.284c1.936.03 3.49.533 4.633 1.54 1.203 1.037 1.79 2.458 1.79 4.295 0 1.925-.587 3.436-1.76 4.532-1.144 1.036-2.698 1.599-4.663 1.629h-6.598v4.383h.499c1.202 0 2.258 0 3.196.03.939.03 1.789.03 2.551.03 3.754 0 6.657-1.008 8.68-2.992 2.023-1.985 3.08-4.561 3.08-7.612 0-2.992-.968-5.45-2.875-7.375zm18.034 17.919H50.026V.09h12.17v4.443h-7.478v3.643h6.597v4.443h-6.597v3.761h7.77v4.443zM80.288.089h4.721l-8.005 20.733h-3.607L65.187.09H70.2l5.16 13.684L80.288.089zm1.935 17.89a2.66 2.66 0 01.85-1.925 2.929 2.929 0 012.141-.86 2.665 2.665 0 011.965.86c.513.508.808 1.2.821 1.925a3.095 3.095 0 01-.792 2.132 2.54 2.54 0 01-1.994.889 2.926 2.926 0 01-2.126-.873 2.986 2.986 0 01-.865-2.148z"/></g><defs><clipPath id="clip0"><path fill="#fff" d="M0 0h88v21H0z"/></clipPath></defs></svg>